<svg width="34" height="33" viewBox="0 0 34 33" fill="none" xmlns="http://www.w3.org/2000/svg">
<path d="M18.6635 2.75C20.2104 2.75413 20.9955 2.76238 21.6734 2.78163L21.9402 2.79125C22.2482 2.80225 22.552 2.816 22.9192 2.8325C24.3822 2.90125 25.3804 3.13225 26.2563 3.47188C27.1638 3.82113 27.9283 4.29412 28.6928 5.05725C29.392 5.74461 29.933 6.57606 30.2782 7.49375C30.6178 8.36962 30.8488 9.36787 30.9175 10.8322C30.934 11.198 30.9478 11.5019 30.9588 11.8113L30.967 12.078C30.9877 12.7545 30.9959 13.5396 30.9987 15.0865L31 16.1123V17.9135C31.0034 18.9164 30.9929 19.9194 30.9684 20.922L30.9602 21.1887C30.9492 21.4981 30.9354 21.802 30.9189 22.1677C30.8502 23.6321 30.6164 24.629 30.2782 25.5062C29.934 26.4244 29.3928 27.2561 28.6928 27.9428C28.0052 28.6417 27.1738 29.1827 26.2563 29.5281C25.3804 29.8678 24.3822 30.0988 22.9192 30.1675C22.5929 30.1829 22.2666 30.1966 21.9402 30.2087L21.6734 30.217C20.9955 30.2362 20.2104 30.2459 18.6635 30.2486L17.6378 30.25H15.8379C14.8345 30.2535 13.8311 30.2429 12.828 30.2184L12.5613 30.2101C12.2349 30.1978 11.9085 30.1836 11.5823 30.1675C10.1193 30.0988 9.12104 29.8678 8.24379 29.5281C7.32621 29.1835 6.49509 28.6424 5.80866 27.9428C5.10885 27.2556 4.56735 26.4241 4.22191 25.5062C3.88229 24.6304 3.65129 23.6321 3.58254 22.1677C3.56722 21.8415 3.55347 21.5151 3.54129 21.1887L3.53441 20.922C3.50907 19.9194 3.49762 18.9164 3.50004 17.9135V15.0865C3.4962 14.0836 3.50628 13.0806 3.53029 12.078L3.53991 11.8113C3.55091 11.5019 3.56466 11.198 3.58116 10.8322C3.64991 9.36787 3.88091 8.371 4.22054 7.49375C4.56582 6.57512 5.1084 5.74341 5.81004 5.05725C6.49629 4.35803 7.32686 3.81698 8.24379 3.47188C9.12104 3.13225 10.1179 2.90125 11.5823 2.8325C11.948 2.816 12.2533 2.80225 12.5613 2.79125L12.828 2.783C13.8307 2.75857 14.8336 2.74803 15.8365 2.75137L18.6635 2.75ZM17.25 9.625C15.4267 9.625 13.678 10.3493 12.3887 11.6386C11.0994 12.928 10.375 14.6766 10.375 16.5C10.375 18.3234 11.0994 20.072 12.3887 21.3614C13.678 22.6507 15.4267 23.375 17.25 23.375C19.0734 23.375 20.8221 22.6507 22.1114 21.3614C23.4007 20.072 24.125 18.3234 24.125 16.5C24.125 14.6766 23.4007 12.928 22.1114 11.6386C20.8221 10.3493 19.0734 9.625 17.25 9.625ZM17.25 12.375C17.7917 12.3749 18.3282 12.4815 18.8287 12.6887C19.3292 12.896 19.7839 13.1997 20.1671 13.5827C20.5502 13.9657 20.8541 14.4204 21.0615 14.9208C21.2688 15.4212 21.3756 15.9576 21.3757 16.4993C21.3758 17.041 21.2692 17.5774 21.062 18.0779C20.8548 18.5784 20.551 19.0332 20.168 19.4163C19.785 19.7994 19.3304 20.1034 18.8299 20.3107C18.3295 20.5181 17.7931 20.6249 17.2514 20.625C16.1574 20.625 15.1082 20.1904 14.3346 19.4168C13.561 18.6432 13.1264 17.594 13.1264 16.5C13.1264 15.406 13.561 14.3568 14.3346 13.5832C15.1082 12.8096 16.1574 12.375 17.2514 12.375M24.4702 7.5625C24.0143 7.5625 23.5772 7.74358 23.2548 8.06591C22.9325 8.38824 22.7514 8.82541 22.7514 9.28125C22.7514 9.73709 22.9325 10.1743 23.2548 10.4966C23.5772 10.8189 24.0143 11 24.4702 11C24.926 11 25.3632 10.8189 25.6855 10.4966C26.0078 10.1743 26.1889 9.73709 26.1889 9.28125C26.1889 8.82541 26.0078 8.38824 25.6855 8.06591C25.3632 7.74358 24.926 7.5625 24.4702 7.5625Z" fill="black"/>
</svg>
