<svg width="18" height="16" viewBox="0 0 18 16" fill="none" xmlns="http://www.w3.org/2000/svg">
<path d="M17.75 5.34375C17.75 10.8125 9.64141 15.2391 9.29609 15.4219C9.20508 15.4708 9.10335 15.4965 9 15.4965C8.89665 15.4965 8.79492 15.4708 8.70391 15.4219C8.35859 15.2391 0.25 10.8125 0.25 5.34375C0.251447 4.05955 0.762235 2.82837 1.6703 1.9203C2.57837 1.01223 3.80955 0.501447 5.09375 0.5C6.70703 0.5 8.11953 1.19375 9 2.36641C9.88047 1.19375 11.293 0.5 12.9062 0.5C14.1904 0.501447 15.4216 1.01223 16.3297 1.9203C17.2378 2.82837 17.7486 4.05955 17.75 5.34375Z" fill="#D55454"/>
</svg>
